<svg xmlns="http://www.w3.org/2000/svg" viewBox="35 0 320 312" shape-rendering="geometricPrecision" aria-label="AllTools AI Logo">
  <defs>
    <linearGradient id="logoGradient" x1="0%" y1="0%" x2="100%" y2="100%">
      <stop offset="0%" stop-color="#007BFF"/>
      <stop offset="50%" stop-color="#6A00F4"/>
      <stop offset="100%" stop-color="#8A2BE2"/>
    </linearGradient>
  </defs>
  <g transform="translate(0 312) scale(.1 -.1)" fill="url(#logoGradient)" stroke="none">
    <path d="M1772 2899c-72-14-206-74-294-131-163-106-399-328-687-643-211-231-376-423-376-438 0-9 59-13 245-14 135-2 250 0 255 5s58 63 115 132c337 404 584 667 704 749 112 77 221 103 316 75 110-32 252-127 460-306 170-147 531-447 556-461 27-16 12-33-91-102-57-38-103-74-101-80 4-13 565-20 578-7 13 13-183 483-201 479-8-1-27-42-45-99-17-53-34-100-38-103-3-3-109 94-235 217-436 425-626 584-788 663-142 68-254 88-373 64zM1756 2178c-9-12-16-27-16-33 0-22-62-84-105-105-25-12-47-26-50-31s16-19 42-33c58-29 97-68 118-118 19-46 39-49 54-6 18 52 58 95 111 119 27 12 50 28 50 34s-19 20-41 31c-54 24-94 64-118 120-11 24-22 44-25 44s-9-10-20-22zM2281 1916c-40-98-95-151-187-183-24-8-44-20-44-27s26-23 57-36c80-33 135-87 169-165 16-36 34-65 40-65s19 20 27 45c30 85 70 131 155 172 42 20 79 38 81 40 10 7-26 30-69 46-72 27-116 70-155 153-19 41-39 74-43 74s-13-24-31-54zM1757 1613c-2-5-10-26-17-48-23-74-82-174-125-214-45-41-131-89-200-111-46-14-67-29-60-40 3-5 29-16 58-26 81-26 145-61 194-107 58-54 89-103 123-197 33-89 51-99 69-38 21 70 72 167 113 212 38 44 133 99 226 132 28 10 52 23 52 30s-34 24-76 39c-86 31-166 81-207 128-34 39-78 124-101 195-16 46-37 66-49 45zM412 1451c-14-8-6-30 73-211 13-30 44-102 68-160 24-58 50-105 57-105s26 38 44 92c17 50 34 95 38 99 10 9 52-29 243-215 531-518 717-661 936-715 345-85 695 177 1528 1141 29 34 50 66 47 71s-114 10-248 11l-243 2-36-38c-19-21-98-112-174-203-284-336-497-561-610-642-118-84-215-109-318-83-123 32-223 100-551 378-109 93-262 221-340 285s-142 120-144 126c-1 6 45 42 103 81 58 38 105 72 105 76s-15 9-33 12c-56 9-531 8-545-2z"/>
  </g>
</svg>